# xmcd CD database file
#
# Track frame offsets:
#	182
#	8620
#	29020
#	40225
#	50235
#	71332
#	86585
#	105917
#	115682
#	131470
#	151030
#	162640
#	182252
#
# Disc length: 2763 seconds
#
# Revision: 0
# Processed by: cddbd v1.5.1PL0 Copyright (c) Steve Scherf et al.
# Submitted via: CDex 1.51
#
DISCID=990ac90d
DTITLE=Cambridge University Fitz Swing Band - Perfect Fitz
DYEAR=1996
DGENRE=Jazz
TTITLE0=Won't You Come Home Bill Bailey
TTITLE1=Anvil Chorus
TTITLE2=Apple Tree
TTITLE3=Foggy Day
TTITLE4=Stardust
TTITLE5=Farandole
TTITLE6=All Of Me
TTITLE7=In A Persian Market
TTITLE8=My Funny Valentine
TTITLE9=Kalamazoo
TTITLE10=Love For Sale
TTITLE11=Misty
TTITLE12=It Had To Be You
EXTD=YEAR: 1996
EXTT0=
EXTT1=
EXTT2=
EXTT3=
EXTT4=
EXTT5=
EXTT6=
EXTT7=
EXTT8=
EXTT9=
EXTT10=
EXTT11=
EXTT12=
PLAYORDER=
